<?xml version="1.0" standalone="no"?>
<!DOCTYPE svg PUBLIC "-//W3C//DTD SVG 20010904//EN"
 "http://www.w3.org/TR/2001/REC-SVG-20010904/DTD/svg10.dtd">
<svg version="1.0" xmlns="http://www.w3.org/2000/svg"
 width="700.000000pt" height="700.000000pt" viewBox="0 0 700.000000 700.000000"
 preserveAspectRatio="xMidYMid meet">
<metadata>
Created by potrace 1.11, written by Peter Selinger 2001-2013
</metadata>
<g transform="translate(0.000000,700.000000) scale(0.100000,-0.100000)"
fill="#000000" stroke="none">
<path d="M3278 6995 c-2 -1 -42 -5 -89 -9 -47 -4 -95 -8 -105 -10 -10 -2 -46
-7 -79 -11 -32 -4 -68 -9 -80 -11 -11 -2 -45 -8 -75 -14 -89 -16 -98 -18 -189
-41 -296 -72 -677 -225 -899 -360 -35 -22 -66 -39 -68 -39 -5 0 -154 -98 -234
-155 -265 -185 -564 -478 -766 -750 -32 -44 -69 -94 -81 -110 -13 -17 -35 -51
-50 -77 -16 -27 -31 -48 -35 -48 -5 0 -8 -4 -8 -10 0 -5 -17 -38 -38 -72 -201
-329 -376 -801 -438 -1183 -37 -232 -42 -305 -39 -630 1 -181 5 -346 9 -365 3
-19 8 -55 11 -78 16 -156 83 -446 146 -634 35 -106 122 -323 152 -383 12 -22
22 -42 22 -45 3 -13 73 -144 132 -243 381 -646 946 -1144 1643 -1450 129 -57
417 -154 525 -177 22 -4 49 -11 60 -13 38 -9 174 -37 209 -43 19 -3 75 -11
123 -19 66 -10 187 -13 488 -11 220 1 411 5 425 9 14 3 43 8 65 11 258 34 643
143 870 246 43 19 291 141 305 149 8 5 62 38 120 72 58 35 128 78 155 98 28
19 64 45 82 56 197 135 509 431 684 650 215 268 408 596 520 883 16 42 34 86
39 97 12 27 89 265 94 290 2 11 13 56 24 100 21 83 60 287 68 359 3 23 9 73
14 111 13 110 10 634 -6 760 -17 144 -43 290 -67 390 -42 170 -114 403 -151
489 -7 17 -33 76 -57 131 -280 647 -784 1220 -1399 1592 -103 62 -311 170
-400 208 -36 15 -83 35 -105 45 -169 74 -533 174 -750 206 -27 4 -57 9 -65 10
-8 2 -42 6 -76 9 -33 4 -74 9 -90 11 -32 5 -540 14 -546 9z"/>
</g>
</svg>
